<?xml version="1.0" encoding="UTF-8" standalone="no"?>
<!DOCTYPE svg PUBLIC "-//W3C//DTD SVG 1.1//EN" "http://www.w3.org/Graphics/SVG/1.1/DTD/svg11.dtd">
<svg width="100%" height="100%" viewBox="0 0 3200 1000" version="1.1" xmlns="http://www.w3.org/2000/svg" xmlns:xlink="http://www.w3.org/1999/xlink" xml:space="preserve" xmlns:serif="http://www.serif.com/" style="fill-rule:evenodd;clip-rule:evenodd;stroke-linejoin:round;stroke-miterlimit:2;">
    <g transform="matrix(-5.46719e-16,1.78572,1.78572,5.46719e-16,59.6083,42.8553)">
        <path d="M216,440C216,417.908 233.909,400 256,400L256,392L224,392C201.909,392 184,374.092 184,352C184,329.908 201.909,312 224,312L256,312L256,304L48,304C21.49,304 0,282.51 0,256C0,229.49 21.49,208 48,208L256,208L256,194.428L78.449,124.688C53.775,114.994 41.631,87.133 51.324,62.46C61.017,37.786 88.878,25.643 113.552,35.336L303.894,110.101L328.766,79.011C341.072,63.63 362.744,59.496 379.847,69.27L491.847,133.27C504.293,140.383 512,153.664 512,168L512,408C512,426.562 499.23,442.686 481.162,446.937L345.162,478.937C342.159,479.644 339.085,480 336,480L256,480C233.909,480 216,462.092 216,440Z" style="fill:url(#_Linear1);fill-rule:nonzero;"/>
    </g>
    <g>
        <g transform="matrix(968.116,0,0,968.116,1046.66,940.779)">
            <path d="M0.316,0.017C0.478,0.017 0.596,-0.062 0.596,-0.215C0.596,-0.375 0.461,-0.409 0.358,-0.435C0.292,-0.452 0.239,-0.465 0.239,-0.505C0.239,-0.537 0.272,-0.552 0.307,-0.552C0.347,-0.552 0.38,-0.531 0.38,-0.487L0.573,-0.487C0.573,-0.63 0.477,-0.716 0.309,-0.716C0.143,-0.716 0.042,-0.637 0.042,-0.499C0.042,-0.34 0.171,-0.309 0.273,-0.284C0.34,-0.268 0.394,-0.255 0.394,-0.211C0.394,-0.173 0.356,-0.152 0.315,-0.152C0.271,-0.152 0.233,-0.176 0.233,-0.226L0.034,-0.226C0.034,-0.074 0.145,0.017 0.316,0.017Z" style="fill:white;fill-rule:nonzero;"/>
        </g>
        <g transform="matrix(968.116,0,0,968.116,1583.04,940.778)">
            <path d="M0.505,-0.7L0.505,-0.333L0.237,-0.7L0.068,-0.7L0.068,-0L0.255,-0L0.255,-0.38L0.532,-0L0.692,-0L0.692,-0.7L0.505,-0.7Z" style="fill:white;fill-rule:nonzero;"/>
        </g>
        <g transform="matrix(968.116,0,0,968.117,2239.43,940.778)">
            <rect x="0.068" y="-0.7" width="0.195" height="0.7" style="fill:white;fill-rule:nonzero;"/>
        </g>
        <g transform="matrix(968.116,0,0,968.116,2478.24,940.778)">
            <path d="M0.366,-0.7C0.366,-0.7 0.068,-0.7 0.068,-0.7L0.068,-0L0.261,-0L0.261,-0.194L0.366,-0.194C0.515,-0.194 0.625,-0.301 0.625,-0.447C0.625,-0.594 0.515,-0.7 0.366,-0.7ZM0.343,-0.362L0.261,-0.362L0.261,-0.532L0.343,-0.532C0.394,-0.532 0.427,-0.497 0.427,-0.447C0.427,-0.397 0.394,-0.362 0.343,-0.362L0.343,-0.362Z" style="fill:white;fill-rule:nonzero;"/>
        </g>
    </g>
    <defs>
        <linearGradient id="_Linear1" x1="0" y1="0" x2="1" y2="0" gradientUnits="userSpaceOnUse" gradientTransform="matrix(512,9,9,-512,5.68434e-14,256)"><stop offset="0" style="stop-color:rgb(134,114,232);stop-opacity:1"/><stop offset="1" style="stop-color:rgb(116,97,251);stop-opacity:1"/></linearGradient>
    </defs>
</svg>
